{
    "asset" : {
        "generator" : "Khronos glTF Blender I/O v1.6.16",
        "version" : "2.0"
    },
    "scene" : 0,
    "scenes" : [
        {
            "name" : "Scene",
            "nodes" : [
                14,
                15,
                16
            ]
        }
    ],
    "nodes" : [
        {
            "mesh" : 0,
            "name" : "Cube.016_Material.001_0"
        },
        {
            "children" : [
                0
            ],
            "name" : "Cube.016",
            "rotation" : [
                -0.8660253882408142,
                0,
                0,
                0.5000000596046448
            ],
            "scale" : [
                71.98484802246094,
                71.98485565185547,
                71.98485565185547
            ],
            "translation" : [
                6.4578857421875,
                201.32614135742188,
                -23.259769439697266
            ]
        },
        {
            "mesh" : 1,
            "name" : "Cube.017_Material.001_0"
        },
        {
            "children" : [
                2
            ],
            "name" : "Cube.017",
            "rotation" : [
                -0.3826834559440613,
                0,
                0,
                0.9238795638084412
            ],
            "scale" : [
                7.773691177368164,
                7.773691654205322,
                7.773691654205322
            ],
            "translation" : [
                5.4515380859375,
                38.61226272583008,
                -118.63565063476562
            ]
        },
        {
            "mesh" : 2,
            "name" : "Cube.018_Material.002_0"
        },
        {
            "children" : [
                4
            ],
            "name" : "Cube.018",
            "rotation" : [
                -0.8660253882408142,
                0,
                0,
                0.4999999701976776
            ],
            "scale" : [
                42.090206146240234,
                100,
                100
            ],
            "translation" : [
                5.451416015625,
                145.6652374267578,
                55.26974105834961
            ]
        },
        {
            "mesh" : 3,
            "name" : "NurbsPath.004_Material.001_0"
        },
        {
            "children" : [
                6
            ],
            "name" : "NurbsPath.004",
            "rotation" : [
                -0.5,
                0.5,
                0.5,
                0.5
            ],
            "scale" : [
                23.64025115966797,
                100,
                100
            ],
            "translation" : [
                5.4515380859375,
                15.628323554992676,
                -127.5762939453125
            ]
        },
        {
            "mesh" : 4,
            "name" : "Pochita Remesh.001_Material.001_0"
        },
        {
            "mesh" : 5,
            "name" : "Pochita Remesh.001_Material.003_0"
        },
        {
            "mesh" : 6,
            "name" : "Pochita Remesh.001_Material_0"
        },
        {
            "children" : [
                8,
                9,
                10
            ],
            "name" : "Pochita Remesh.001",
            "rotation" : [
                -0.7071068286895752,
                0,
                0,
                0.7071067094802856
            ],
            "scale" : [
                3.3261220455169678,
                3.3261232376098633,
                3.3261220455169678
            ],
            "translation" : [
                5.4515380859375,
                80.3948745727539,
                2.3145318031311035
            ]
        },
        {
            "children" : [
                1,
                3,
                5,
                7,
                11
            ],
            "name" : "RootNode"
        },
        {
            "children" : [
                12
            ],
            "name" : "641ce127413748c0b70742f8774f67e8.fbx",
            "rotation" : [
                0.7071068286895752,
                0,
                0,
                0.7071068286895752
            ],
            "scale" : [
                0.009999999776482582,
                0.009999999776482582,
                0.009999999776482582
            ]
        },
        {
            "children" : [
                13
            ],
            "name" : "Sketchfab_model",
            "rotation" : [
                -0.7071068286895752,
                0,
                0,
                0.7071068286895752
            ],
            "translation" : [
                0,
                -0.026708737015724182,
                0
            ]
        },
        {
            "name" : "Light",
            "rotation" : [
                0.16907575726509094,
                0.7558803558349609,
                -0.27217137813568115,
                0.570947527885437
            ],
            "translation" : [
                4.076245307922363,
                5.877153396606445,
                -1.0054539442062378
            ]
        },
        {
            "name" : "Camera",
            "rotation" : [
                0.483536034822464,
                0.33687159419059753,
                -0.20870360732078552,
                0.7804827094078064
            ],
            "translation" : [
                7.358891487121582,
                4.89995813369751,
                6.925790786743164
            ]
        }
    ],
    "materials" : [
        {
            "doubleSided" : true,
            "name" : "Material.002",
            "pbrMetallicRoughness" : {
                "baseColorFactor" : [
                    0,
                    0,
                    0,
                    1
                ],
                "metallicFactor" : 0.18133388459682465,
                "roughnessFactor" : 0.1569528579711914
            }
        },
        {
            "doubleSided" : true,
            "name" : "Material.004",
            "pbrMetallicRoughness" : {
                "baseColorFactor" : [
                    0.08713939785957336,
                    0.08713939785957336,
                    0.08713939785957336,
                    1
                ],
                "metallicFactor" : 0.42514416575431824,
                "roughnessFactor" : 0.16304811835289001
            }
        },
        {
            "doubleSided" : true,
            "name" : "Material.003",
            "pbrMetallicRoughness" : {
                "baseColorFactor" : [
                    0.800000011920929,
                    0.800000011920929,
                    0.800000011920929,
                    1
                ],
                "metallicFactor" : 0,
                "roughnessFactor" : 0.16914337873458862
            }
        },
        {
            "doubleSided" : true,
            "name" : "Material.001",
            "pbrMetallicRoughness" : {
                "baseColorFactor" : [
                    0.800000011920929,
                    0.15846100449562073,
                    0.032827798277139664,
                    1
                ],
                "metallicFactor" : 0,
                "roughnessFactor" : 0.9360973238945007
            }
        }
    ],
    "meshes" : [
        {
            "name" : "Cube.016_Material.001_0",
            "primitives" : [
                {
                    "attributes" : {
                        "POSITION" : 0,
                        "NORMAL" : 1,
                        "TEXCOORD_0" : 2
                    },
                    "indices" : 3,
                    "material" : 0
                }
            ]
        },
        {
            "name" : "Cube.017_Material.001_0",
            "primitives" : [
                {
                    "attributes" : {
                        "POSITION" : 4,
                        "NORMAL" : 5,
                        "TEXCOORD_0" : 6
                    },
                    "indices" : 7,
                    "material" : 0
                }
            ]
        },
        {
            "name" : "Cube.018_Material.002_0",
            "primitives" : [
                {
                    "attributes" : {
                        "POSITION" : 8,
                        "NORMAL" : 9,
                        "TEXCOORD_0" : 10
                    },
                    "indices" : 11,
                    "material" : 1
                }
            ]
        },
        {
            "name" : "NurbsPath.004_Material.001_0",
            "primitives" : [
                {
                    "attributes" : {
                        "POSITION" : 12,
                        "NORMAL" : 13,
                        "TEXCOORD_0" : 14
                    },
                    "indices" : 15,
                    "material" : 0
                }
            ]
        },
        {
            "name" : "Pochita Remesh.001_Material.001_0",
            "primitives" : [
                {
                    "attributes" : {
                        "POSITION" : 16,
                        "NORMAL" : 17,
                        "TEXCOORD_0" : 18
                    },
                    "indices" : 19,
                    "material" : 0
                }
            ]
        },
        {
            "name" : "Pochita Remesh.001_Material.003_0",
            "primitives" : [
                {
                    "attributes" : {
                        "POSITION" : 20,
                        "NORMAL" : 21,
                        "TEXCOORD_0" : 22
                    },
                    "indices" : 23,
                    "material" : 2
                }
            ]
        },
        {
            "name" : "Pochita Remesh.001_Material_0",
            "primitives" : [
                {
                    "attributes" : {
                        "POSITION" : 24,
                        "NORMAL" : 25,
                        "TEXCOORD_0" : 26
                    },
                    "indices" : 27,
                    "material" : 3
                }
            ]
        }
    ],
    "accessors" : [
        {
            "bufferView" : 0,
            "componentType" : 5126,
            "count" : 1468,
            "max" : [
                0.7296668887138367,
                0.09364375472068787,
                -0.005382224917411804
            ],
            "min" : [
                -0.7296668887138367,
                -0.09364376217126846,
                -0.8551488518714905
            ],
            "type" : "VEC3"
        },
        {
            "bufferView" : 1,
            "componentType" : 5126,
            "count" : 1468,
            "type" : "VEC3"
        },
        {
            "bufferView" : 2,
            "componentType" : 5126,
            "count" : 1468,
            "type" : "VEC2"
        },
        {
            "bufferView" : 3,
            "componentType" : 5123,
            "count" : 7104,
            "type" : "SCALAR"
        },
        {
            "bufferView" : 4,
            "componentType" : 5126,
            "count" : 682,
            "max" : [
                0.965589165687561,
                1,
                -0.47938796877861023
            ],
            "min" : [
                -0.965589165687561,
                -1,
                -0.8012211322784424
            ],
            "type" : "VEC3"
        },
        {
            "bufferView" : 5,
            "componentType" : 5126,
            "count" : 682,
            "type" : "VEC3"
        },
        {
            "bufferView" : 6,
            "componentType" : 5126,
            "count" : 682,
            "type" : "VEC2"
        },
        {
            "bufferView" : 7,
            "componentType" : 5123,
            "count" : 792,
            "type" : "SCALAR"
        },
        {
            "bufferView" : 8,
            "componentType" : 5126,
            "count" : 6867,
            "max" : [
                0.060476887971162796,
                0.39114415645599365,
                0.28421470522880554
            ],
            "min" : [
                -0.060476887971162796,
                -0.8828284740447998,
                -0.5163642168045044
            ],
            "type" : "VEC3"
        },
        {
            "bufferView" : 9,
            "componentType" : 5126,
            "count" : 6867,
            "type" : "VEC3"
        },
        {
            "bufferView" : 10,
            "componentType" : 5126,
            "count" : 6867,
            "type" : "VEC2"
        },
        {
            "bufferView" : 11,
            "componentType" : 5123,
            "count" : 7947,
            "type" : "SCALAR"
        },
        {
            "bufferView" : 12,
            "componentType" : 5126,
            "count" : 2628,
            "max" : [
                -0.377664715051651,
                0.017939405515789986,
                0.17509138584136963
            ],
            "min" : [
                -2.4338879585266113,
                -0.017939405515789986,
                -0.023872297257184982
            ],
            "type" : "VEC3"
        },
        {
            "bufferView" : 13,
            "componentType" : 5126,
            "count" : 2628,
            "type" : "VEC3"
        },
        {
            "bufferView" : 14,
            "componentType" : 5126,
            "count" : 2628,
            "type" : "VEC2"
        },
        {
            "bufferView" : 15,
            "componentType" : 5123,
            "count" : 13812,
            "type" : "SCALAR"
        },
        {
            "bufferView" : 16,
            "componentType" : 5126,
            "count" : 314,
            "max" : [
                12.614607810974121,
                -17.882225036621094,
                18.164154052734375
            ],
            "min" : [
                -12.614607810974121,
                -21.926856994628906,
                11.996180534362793
            ],
            "type" : "VEC3"
        },
        {
            "bufferView" : 17,
            "componentType" : 5126,
            "count" : 314,
            "type" : "VEC3"
        },
        {
            "bufferView" : 18,
            "componentType" : 5126,
            "count" : 314,
            "type" : "VEC2"
        },
        {
            "bufferView" : 19,
            "componentType" : 5123,
            "count" : 1716,
            "type" : "SCALAR"
        },
        {
            "bufferView" : 20,
            "componentType" : 5126,
            "count" : 280,
            "max" : [
                13.999272346496582,
                -17.51114845275879,
                19.708118438720703
            ],
            "min" : [
                -13.999272346496582,
                -22.880287170410156,
                11.102763175964355
            ],
            "type" : "VEC3"
        },
        {
            "bufferView" : 21,
            "componentType" : 5126,
            "count" : 280,
            "type" : "VEC3"
        },
        {
            "bufferView" : 22,
            "componentType" : 5126,
            "count" : 280,
            "type" : "VEC2"
        },
        {
            "bufferView" : 23,
            "componentType" : 5123,
            "count" : 1248,
            "type" : "SCALAR"
        },
        {
            "bufferView" : 24,
            "componentType" : 5126,
            "count" : 8032,
            "max" : [
                20.01112937927246,
                28.75534439086914,
                29.477554321289062
            ],
            "min" : [
                -20.01112937927246,
                -26.09998893737793,
                -21.364967346191406
            ],
            "type" : "VEC3"
        },
        {
            "bufferView" : 25,
            "componentType" : 5126,
            "count" : 8032,
            "type" : "VEC3"
        },
        {
            "bufferView" : 26,
            "componentType" : 5126,
            "count" : 8032,
            "type" : "VEC2"
        },
        {
            "bufferView" : 27,
            "componentType" : 5123,
            "count" : 37380,
            "type" : "SCALAR"
        }
    ],
    "bufferViews" : [
        {
            "buffer" : 0,
            "byteLength" : 17616,
            "byteOffset" : 0
        },
        {
            "buffer" : 0,
            "byteLength" : 17616,
            "byteOffset" : 17616
        },
        {
            "buffer" : 0,
            "byteLength" : 11744,
            "byteOffset" : 35232
        },
        {
            "buffer" : 0,
            "byteLength" : 14208,
            "byteOffset" : 46976
        },
        {
            "buffer" : 0,
            "byteLength" : 8184,
            "byteOffset" : 61184
        },
        {
            "buffer" : 0,
            "byteLength" : 8184,
            "byteOffset" : 69368
        },
        {
            "buffer" : 0,
            "byteLength" : 5456,
            "byteOffset" : 77552
        },
        {
            "buffer" : 0,
            "byteLength" : 1584,
            "byteOffset" : 83008
        },
        {
            "buffer" : 0,
            "byteLength" : 82404,
            "byteOffset" : 84592
        },
        {
            "buffer" : 0,
            "byteLength" : 82404,
            "byteOffset" : 166996
        },
        {
            "buffer" : 0,
            "byteLength" : 54936,
            "byteOffset" : 249400
        },
        {
            "buffer" : 0,
            "byteLength" : 15894,
            "byteOffset" : 304336
        },
        {
            "buffer" : 0,
            "byteLength" : 31536,
            "byteOffset" : 320232
        },
        {
            "buffer" : 0,
            "byteLength" : 31536,
            "byteOffset" : 351768
        },
        {
            "buffer" : 0,
            "byteLength" : 21024,
            "byteOffset" : 383304
        },
        {
            "buffer" : 0,
            "byteLength" : 27624,
            "byteOffset" : 404328
        },
        {
            "buffer" : 0,
            "byteLength" : 3768,
            "byteOffset" : 431952
        },
        {
            "buffer" : 0,
            "byteLength" : 3768,
            "byteOffset" : 435720
        },
        {
            "buffer" : 0,
            "byteLength" : 2512,
            "byteOffset" : 439488
        },
        {
            "buffer" : 0,
            "byteLength" : 3432,
            "byteOffset" : 442000
        },
        {
            "buffer" : 0,
            "byteLength" : 3360,
            "byteOffset" : 445432
        },
        {
            "buffer" : 0,
            "byteLength" : 3360,
            "byteOffset" : 448792
        },
        {
            "buffer" : 0,
            "byteLength" : 2240,
            "byteOffset" : 452152
        },
        {
            "buffer" : 0,
            "byteLength" : 2496,
            "byteOffset" : 454392
        },
        {
            "buffer" : 0,
            "byteLength" : 96384,
            "byteOffset" : 456888
        },
        {
            "buffer" : 0,
            "byteLength" : 96384,
            "byteOffset" : 553272
        },
        {
            "buffer" : 0,
            "byteLength" : 64256,
            "byteOffset" : 649656
        },
        {
            "buffer" : 0,
            "byteLength" : 74760,
            "byteOffset" : 713912
        }
    ],
    "buffers" : [
        {
            "byteLength" : 788672,
            "uri" : "data:application/octet-stream;base64,"
        }
    ]
}
